# xmcd
#
# Track frame offsets:
#	150
#	16098
#	31695
#	50044
#	68568
#	82581
#	94168
#	109089
#	122862
#	137279
#
# Disc length: 2031 seconds
#
# Revision: 1
# Processed by: cddbd v1.5.2PL0 Copyright (c) Steve Scherf et al.
# Submitted via: audiograbber 1.83.01
#
DISCID=6e07ed0a
DTITLE=Stardust - Stardust 019
DYEAR=1900
DGENRE=
TTITLE0=Blue Monday - Rooster Quantrell
TTITLE1=Whats Wrong With The Way That We´re Doing It Now - Donna Darlin
TTITLE2=Little Duch Maiden - Tony Martin
TTITLE3=Ferris Wheels And Cotton Candy - Michael Apidgian
TTITLE4=Excus ´m´moi - Brant Miller
TTITLE5=Why Did You Stop Loving Me - John Hamilton
TTITLE6=You´re Playing Hard To Forget - Ol´ Joe Clark
TTITLE7=God Give Me Wings - Jerri Arnold
TTITLE8=One Night At The Time - Jimmy Cole
TTITLE9=When You Love Me - Joella Messenger
EXTD=
EXTT0=
EXTT1=
EXTT2=
EXTT3=
EXTT4=
EXTT5=
EXTT6=
EXTT7=
EXTT8=
EXTT9=
PLAYORDER=
